<svg xmlns="http://www.w3.org/2000/svg" xmlns:xlink="http://www.w3.org/1999/xlink" viewBox="0 0 416.42 172.646"><defs><style>.cls-1{fill:url(#linear-gradient);}.cls-2{fill:#161241;}</style><linearGradient id="linear-gradient" x1="804.877" y1="113.878" x2="647.704" y2="196.965" gradientTransform="matrix(0.819, -0.051, 0, 1, -256.075, -71.718)" gradientUnits="userSpaceOnUse"><stop offset="0.101" stop-color="#37a3dc"/><stop offset="0.291" stop-color="#3592d0"/><stop offset="0.664" stop-color="#2e67b0"/><stop offset="1" stop-color="#283b90"/></linearGradient></defs><g id="Layer_2" data-name="Layer 2"><g id="Layer_1-2" data-name="Layer 1"><path class="cls-1" d="M416.361,25.336c-.6,8.919-5.657,18.225-11.123,24.253-8.055,8.886-18.324,13.945-27.688,20.145-8.015,5.307-16.054,10.841-23.969,16.456-15.947,11.314-31.537,23.439-46.758,36.227-7.3,6.137-14.491,14.053-22.215,19.247q-8.571,7.644-17.03,15.478-4.126,3.827-8.221,7.7-2.045,1.936-4.079,3.886c-.789.756-3.133,3.852-4.055,3.91-1.649.1-2.994-1.441-2.994-3.455,0-2.952,3.192-4.181,4.936-5.531q3.849-2.979,7.606-6.137a544.059,544.059,0,0,0,58.72-57.544,235.742,235.742,0,0,0,20.755-26.824c4.675-7.2,9.345-15.273,11.3-24.169,4.11-18.709-11.4-21.97-23.09-21.383-20.791,1.043-40.254,8.456-59.8,17.636-3.7,1.737-8.432,2.637-8.433-3.747,0-4.933,4.344-5.76,7.4-6.458,5.1-1.164,10.2-2.4,15.293-3.661,19.081-4.73,38.166-10.211,56.958-16.687,21.027-7.247,49.179-24.431,68.737-7.376a29.6,29.6,0,0,1,3.635,3.792A20.007,20.007,0,0,1,416.361,25.336Z"/><path class="cls-2" d="M0,144.7,13.977,57.952H51.4q17.613,0,26.341,10.691,9.478,11.3,6.11,32.194-3.171,19.681-14.769,31.345Q56.612,144.7,37.419,144.7ZM30.467,73.988l-8.809,54.67H38.666a23.287,23.287,0,0,0,15.883-5.832q7.776-6.8,9.931-20.167,2.251-13.969-1.978-20.9-4.824-7.774-18.429-7.776Z"/><path class="cls-2" d="M109.218,144.7l11.393-70.707h-26L97.2,57.952h71.071l-2.584,16.036h-26L128.292,144.7Z"/><path class="cls-2" d="M164.252,144.7l13.976-86.743H197.3l-11.393,70.706h42.278L225.6,144.7Z"/></g></g></svg>