<svg xmlns="http://www.w3.org/2000/svg" xmlns:xlink="http://www.w3.org/1999/xlink" viewBox="0 0 193 283.67"><defs><style>.cls-1{fill:url(#linear-gradient);}.cls-2{fill:url(#linear-gradient-2);}.cls-3{fill:url(#linear-gradient-3);}.cls-4{fill:url(#linear-gradient-4);}.cls-5{fill:url(#linear-gradient-5);}.cls-6{fill:url(#linear-gradient-6);}.cls-7{fill:url(#linear-gradient-8);}</style><linearGradient id="linear-gradient" x1="-20.05" y1="157.71" x2="133.77" y2="157.71" gradientUnits="userSpaceOnUse"><stop offset="0" stop-color="#64ccf5"/><stop offset="0.19" stop-color="#5ec7f1"/><stop offset="0.44" stop-color="#4db9e6"/><stop offset="0.73" stop-color="#32a2d3"/><stop offset="1" stop-color="#1186bd"/></linearGradient><linearGradient id="linear-gradient-2" x1="-20.05" y1="228.38" x2="133.77" y2="228.38" xlink:href="#linear-gradient"/><linearGradient id="linear-gradient-3" x1="-20.05" y1="89.39" x2="133.77" y2="89.39" xlink:href="#linear-gradient"/><linearGradient id="linear-gradient-4" x1="-20.05" y1="157.71" x2="133.77" y2="157.71" xlink:href="#linear-gradient"/><linearGradient id="linear-gradient-5" x1="-20.05" y1="191.91" x2="133.77" y2="191.91" xlink:href="#linear-gradient"/><linearGradient id="linear-gradient-6" x1="-20.05" y1="89.57" x2="133.77" y2="89.57" xlink:href="#linear-gradient"/><linearGradient id="linear-gradient-8" x1="-20.05" y1="89.57" x2="133.77" y2="89.57" xlink:href="#linear-gradient"/></defs><g id="Layer_2" data-name="Layer 2"><g id="Layer_1-2" data-name="Layer 1"><path class="cls-1" d="M192.84,155.21a15.86,15.86,0,0,1-.29-1.81,21.08,21.08,0,1,0-24.68,25s0,0,0,0c.42,0,.82.12,1.23.19h0a21.07,21.07,0,0,0,23.7-23.39Z"/><path class="cls-2" d="M120.45,224.08a21.08,21.08,0,1,0-24.68,25h0c.41,0,.82.12,1.22.2h0a21.07,21.07,0,0,0,23.71-23.39A13.94,13.94,0,0,1,120.45,224.08Z"/><path class="cls-3" d="M86.79,37.64a17.4,17.4,0,0,1,1.48,1.07,21,21,0,0,1,.63,32.57,21,21,0,0,0-10,16.2h0c0,.57-.11,1.14-.12,1.72v.09h0v.21h0a20.38,20.38,0,0,0,.19,2.83,20.15,20.15,0,0,0,.55,2.72,20.74,20.74,0,0,0,2.09,5,21.2,21.2,0,0,0,5.25,6A19.67,19.67,0,0,0,89,107.58a21,21,0,0,1,.82,31.09,20.42,20.42,0,0,1-1.8,1.55h0c-.32.26-.66.5-1,.73h0a21,21,0,0,0-8.27,16.73h0a21.08,21.08,0,1,0,42.16,0h0a21,21,0,0,0-7.8-16.36c-.37-.22-.7-.5-1-.75s-.72-.47-1-.75a17.76,17.76,0,0,1-1.7-1.54,20.73,20.73,0,0,1-1.53-1.71,21,21,0,0,1,2.45-28.77A21.08,21.08,0,0,0,120.9,89.5h0v-.06a.07.07,0,0,1,0,0,.11.11,0,0,1,0,0v0h0c0-.14,0-.28,0-.42,0-.47-.05-.93-.09-1.39h0A21.09,21.09,0,0,0,110.35,71a21,21,0,0,1,.46-32,20.66,20.66,0,0,1,2.48-1.77,21.08,21.08,0,1,0-26.5.35Z"/><path class="cls-4" d="M149.81,175.55a17.18,17.18,0,0,1-2.11-1.5A21.07,21.07,0,0,1,142,166.9a20.31,20.31,0,0,1-.9-2.15,20.9,20.9,0,0,1-1.21-7.06c0-.19,0-.37,0-.56s0-.56.05-.85h0a21,21,0,0,1,7.53-14.8,20.66,20.66,0,0,1,2.48-1.77,21.09,21.09,0,1,0-26.51.35,14.41,14.41,0,0,1,1.49,1.07,20.94,20.94,0,0,1,8,16,6,6,0,0,1,0,.61,21.05,21.05,0,0,1-3.44,11.55,22,22,0,0,1-1.42,1.91,21.61,21.61,0,0,1-3.41,3.28h0c-.32.26-.66.49-1,.73,0,0,0,0,0,0a20.31,20.31,0,0,0-1.8,1.54A20.62,20.62,0,0,0,117,184a21.07,21.07,0,0,0-1.58,7.95h0a21.2,21.2,0,0,0,.43,4.25,19.28,19.28,0,0,0,.52,2,21,21,0,0,0,5.23,8.64,19.22,19.22,0,0,0,1.49,1.36,21.07,21.07,0,0,0,7.14,3.87,21.29,21.29,0,0,0,6.27.94,21.07,21.07,0,0,0,13.29-37.44Z"/><path class="cls-5" d="M38.93,214.89A19.22,19.22,0,0,0,37.59,213a20.68,20.68,0,0,0-3.22-3.26,14.12,14.12,0,0,1-1.5-1.07c-.2-.15-.42-.27-.61-.43a22.49,22.49,0,0,1-1.7-1.54A20.87,20.87,0,0,1,29,205a20.57,20.57,0,0,1-2.45-3.89,20.91,20.91,0,0,1-2.11-9.21c0-.39,0-.77.06-1.15,0-.09,0-.17,0-.26h0a21,21,0,0,1,7.52-14.8,19.71,19.71,0,0,1,2.49-1.77,21.09,21.09,0,1,0-26.51.35,15.58,15.58,0,0,1,1.49,1.07,21,21,0,0,1,8,15.38c0,.39.07.78.07,1.18a21,21,0,0,1-6.47,15.19,22.24,22.24,0,0,1-1.8,1.55h0a12.09,12.09,0,0,1-1,.72h0L8,209.6a21.21,21.21,0,0,0-8,16.52H0a21.2,21.2,0,0,0,.43,4.25,19.28,19.28,0,0,0,.52,2A21.09,21.09,0,0,0,21.08,247.2h0a21.09,21.09,0,0,0,17.85-32.31Z"/><path class="cls-6" d="M56.31,101.1A20.55,20.55,0,0,1,54.89,103a20.76,20.76,0,0,1-3.41,3.28h0a10.36,10.36,0,0,1-1,.73s0,0,0,0a22.13,22.13,0,0,0-1.8,1.54,21.37,21.37,0,0,0-4.22,5.71,21,21,0,0,0,.71,20.22,20.66,20.66,0,0,0,1.55,2.27,20.09,20.09,0,0,0,1.67,1.9,21.08,21.08,0,0,0,35-8.63c.2-.66.38-1.34.52-2a21.35,21.35,0,0,0,.43-4.25h0a21.09,21.09,0,0,0-.55-4.8A20.74,20.74,0,0,0,79,109.76a19.81,19.81,0,0,0-2.42-2.34c-.37-.23-.7-.5-1-.75s-.73-.48-1.06-.75a21,21,0,0,1-7.79-16.37c0-.19,0-.37,0-.56s0-.56,0-.84h0a21.07,21.07,0,0,1,10-16.58,21.09,21.09,0,1,0-26.51.35A16.09,16.09,0,0,1,51.7,73a21,21,0,0,1,8,16c0,.2,0,.4,0,.6A21,21,0,0,1,56.31,101.1Z"/><path class="cls-2" d="M78.23,247.77a19,19,0,0,0-1.7-1.54,18.33,18.33,0,0,1-2.11-1.5,21.09,21.09,0,0,1-6.73-9.82,20.86,20.86,0,0,1-1.06-6.55c0-.2,0-.39,0-.59s0-.54,0-.81h0a21.07,21.07,0,0,1,10-16.58,21.09,21.09,0,1,0-26.51.35,16.09,16.09,0,0,1,1.49,1.07,21,21,0,0,1,8,16c0,.19,0,.38,0,.57a21.59,21.59,0,0,1-8.27,16.74h0a10.36,10.36,0,0,1-1,.73h0a22.13,22.13,0,0,0-1.8,1.54,21.08,21.08,0,0,0,4.57,33.73,20.63,20.63,0,0,0,3.77,1.6,21.17,21.17,0,0,0,12.54,0,20.5,20.5,0,0,0,4.84-2.24,20.89,20.89,0,0,0,8.32-9.69,21,21,0,0,0,1.55-6.05c.07-.71.11-1.42.11-2.15a21.06,21.06,0,0,0-6.1-14.82Z"/><path class="cls-7" d="M17,110.26s0,0,0,0c.41,0,.82.12,1.22.2h0A21.07,21.07,0,0,0,42,87.08a15.89,15.89,0,0,1-.3-1.81A20.8,20.8,0,0,0,36,74.67a21.08,21.08,0,1,0-19,35.59Z"/></g></g></svg>